<?xml version="1.0" encoding="utf-8"?>
<!-- Generator: Adobe Illustrator 16.0.4, SVG Export Plug-In . SVG Version: 6.00 Build 0)  -->
<!DOCTYPE svg PUBLIC "-//W3C//DTD SVG 1.1//EN" "http://www.w3.org/Graphics/SVG/1.1/DTD/svg11.dtd">
<svg version="1.1" id="Layer_1" xmlns="http://www.w3.org/2000/svg" xmlns:xlink="http://www.w3.org/1999/xlink" x="0px" y="0px"
	 width="843px" height="68px" viewBox="0 0 843 68" enable-background="new 0 0 843 68" xml:space="preserve">
<path d="M20.192,58.122c0,4.775,1.304,5.862,10.098,5.862v2.932H0.001v-2.932c5.969,0,8.032-0.543,8.032-5.753V9.811
	c0-5.21-2.063-5.753-8.032-5.753V1.126H41.58c5.536,0,7.49-0.216,9.228-0.542l0.324,18.563h-2.497
	c-1.41-13.57-4.776-14.764-17.369-14.764H20.192v26.925h9.012c8.576,0,9.118-1.413,9.77-8.144h2.388v19.65h-2.388
	c-0.652-6.731-1.194-8.034-9.77-8.034h-9.012V58.122"/>
<path d="M59.103,66.916v-2.932c5.971,0,8.033-0.543,8.033-5.753V9.812c0-5.211-2.062-5.754-8.033-5.754V1.126h28.226v2.932
	c-5.972,0-8.035,0.543-8.035,5.754v48.419c0,5.21,2.063,5.753,8.035,5.753v2.932H59.103"/>
<path d="M153.705,68l-44.944-55.801v45.705c0,5.319,3.69,6.08,9.879,6.08v2.932H94.756v-2.932c6.188,0,9.662-0.761,9.662-6.08V7.206
	c-2.931-2.932-4.994-3.148-9.662-3.148V1.126h21.17l34.523,44.402v-35.39c0-5.32-3.691-6.08-9.88-6.08V1.126h23.884v2.932
	c-6.188,0-9.662,0.76-9.662,6.08V68H153.705"/>
<path d="M183.621,66.916h-23.776v-2.932c6.297,0,9.118-0.869,11.073-6.188l21.497-57.212h5.97l23.124,57.647
	c2.063,5.102,3.038,5.753,7.708,5.753v2.932h-27.575v-2.932c8.467,0,9.228-0.651,7.165-5.753l-6.84-17.479h-20.626l-6.08,16.937
	c-1.954,5.209,1.086,6.296,8.36,6.296V66.916 M182.644,37.169h17.912l-9.337-23.559L182.644,37.169z"/>
<g>
	<defs>
		<rect id="SVGID_1_" y="0.041" width="842.198" height="67.959"/>
	</defs>
	<clipPath id="SVGID_2_">
		<use xlink:href="#SVGID_1_"  overflow="visible"/>
	</clipPath>
	<path clip-path="url(#SVGID_2_)" d="M291.094,68L246.15,12.199v45.705c0,5.319,3.691,6.08,9.879,6.08v2.932h-23.341v-2.932
		c5.754,0,9.119-0.761,9.119-6.08V7.314c-3.257-3.04-5.754-3.256-11.073-3.256V1.126h22.58l34.523,44.402v-35.39
		c0-5.32-3.691-6.08-9.879-6.08V1.126h23.884v2.932c-6.188,0-9.662,0.76-9.662,6.08V68H291.094"/>
	<path clip-path="url(#SVGID_2_)" d="M355.857,1.018h1.628l0.977,19.649l-2.497,0.108c-1.628-11.289-7.598-17.151-18.564-17.151
		c-12.158,0-21.495,10.42-21.495,26.489c0,20.519,12.919,32.134,26.49,32.134c5.861,0,11.181-1.629,16.283-7.165l1.846,1.953
		C356.292,63.007,348.042,68,336.858,68c-16.608,0-33.437-12.483-33.437-33.436c0-20.192,15.308-34.523,33.872-34.523
		c8.793,0,13.461,3.799,15.851,3.799C354.446,3.84,355.207,2.864,355.857,1.018"/>
</g>
<path d="M365.951,66.916v-2.932c5.971,0,8.033-0.543,8.033-5.753V9.812c0-5.211-2.062-5.754-8.033-5.754V1.126h28.226v2.932
	c-5.971,0-8.034,0.543-8.034,5.754v48.419c0,5.21,2.063,5.753,8.034,5.753v2.932H365.951"/>
<path d="M420.882,66.916h-22.147v-2.932c4.885,0,7.491-0.869,9.444-6.188l21.497-57.212h5.971l23.125,57.647
	c2.062,5.102,3.037,5.753,7.707,5.753v2.932h-27.574v-2.932c8.468,0,9.226-0.651,7.164-5.753l-6.838-17.479h-20.627l-6.081,16.937
	c-1.954,5.209,1.086,6.296,8.36,6.296V66.916 M419.904,37.169h17.914l-9.336-23.559L419.904,37.169z"/>
<path d="M471.035,66.916v-2.932c5.971,0,8.033-0.543,8.033-5.753V9.812c0-5.211-2.062-5.754-8.033-5.754V1.126h28.117v2.932
	c-5.971,0-7.924,0.543-7.924,5.754v48.853c0,4.342,2.17,4.885,5.754,4.885h3.365c12.701,0,16.828-1.845,20.299-16.393l2.392,0.326
	l-2.065,19.433H471.035"/>
<path d="M607.017,0.584l0.326,19.649h-2.499c-1.41-14.113-4.776-15.85-17.368-15.85h-4.018v53.739c0,5.102,1.953,5.862,10.095,5.862
	v2.932h-32.459v-2.932c8.142,0,10.204-0.761,10.204-5.862V4.383h-4.016c-12.595,0-15.958,1.737-17.37,15.85h-2.498l0.327-19.649
	c1.737,0.326,3.691,0.542,9.229,0.542h40.817C603.325,1.126,605.278,0.91,607.017,0.584"/>
<path d="M614.225,66.916v-2.932c5.972,0,8.033-0.543,8.033-5.753V9.812c0-5.211-2.062-5.754-8.033-5.754V1.126h28.227v2.932
	c-5.971,0-8.037,0.543-8.037,5.754v48.419c0,5.21,2.066,5.753,8.037,5.753v2.932H614.225"/>
<path d="M727.346,1.126v2.932c-5.971,0-8.576,0.325-8.033,5.536l5.103,48.854c0.543,4.993,2.495,5.536,8.359,5.536v2.932h-28.118
	v-2.932c5.862,0,7.925-0.543,7.49-5.536l-5.32-51.35L686.093,68h-0.869L665.139,7.098l-4.992,51.241
	c-0.543,5.211,3.039,5.646,9.011,5.646v2.932h-21.929v-2.932c5.968,0,8.032-0.978,8.467-5.646l4.992-48.745
	c0.545-5.211-2.063-5.536-8.032-5.536V1.126h23.122l13.896,44.945l14.982-44.945H727.346"/>
<g>
	<defs>
		<rect id="SVGID_3_" y="0.041" width="842.198" height="67.959"/>
	</defs>
	<clipPath id="SVGID_4_">
		<use xlink:href="#SVGID_3_"  overflow="visible"/>
	</clipPath>
	<path clip-path="url(#SVGID_4_)" d="M779.888,42.814h-2.391c-0.649-6.73-1.193-8.034-9.769-8.034h-9.99v23.885
		c0,4.342,2.172,4.885,5.753,4.885h5.429c12.703,0,16.827-1.845,20.302-16.393l2.389,0.326l-2.279,19.433h-51.783v-2.932
		c5.971,0,8.033-0.543,8.033-5.753V9.812c0-5.211-2.062-5.754-8.033-5.754V1.125h49.721l0.218,16.395h-2.497
		c-1.521-11.617-4.452-13.027-17.479-13.027h-9.771v26.815h9.99c8.575,0,9.119-1.412,9.769-8.143h2.391V42.814"/>
	<path clip-path="url(#SVGID_4_)" d="M832.212,53.346c0-5.971-3.801-9.012-10.315-12.594l-10.422-5.428
		c-7.815-4.234-12.483-8.793-12.483-17.044c0-10.315,8.792-18.239,20.3-18.239c7.925,0,11.941,3.799,14.222,3.799
		c1.521,0,2.171-0.976,2.823-2.822h1.847l0.976,18.456l-2.387,0.108c-1.306-8.902-7.709-15.85-16.72-15.85
		c-6.732,0-11.291,4.017-11.291,9.769c0,6.298,4.776,8.795,9.989,11.727l9.009,4.777c8.468,4.56,14.439,9.227,14.439,18.021
		c0,11.614-9.986,19.974-22.581,19.974c-8.794,0-13.136-4.232-15.523-4.232c-1.521,0-2.279,1.301-2.932,3.365h-1.848l-1.301-19.649
		l2.387-0.326c1.846,12.157,10.313,17.262,18.782,17.262C826.24,64.419,832.212,61.271,832.212,53.346"/>
</g>
</svg>
